# xmcd
#
# Track frame offsets:
#   150
#   14682
#   32835
#   53902
#   68475
#   83097
#   102354
#   119570
#   136302
#   150247
#   170610
#   192837
#   207227
#   228067
#
# Disc length: 3286 seconds
#
# Revision: 0
# Processed by: cddbd v1.5.2PL0 Copyright (c) Steve Scherf et al.
# Submitted via: uFREEDB ActiveX Control 1.5
#
DISCID=b30cd40e
DTITLE=Mano Junior - Mano Junior 
DYEAR=1999
DGENRE=Country
TTITLE0=Pingo De Paixão
TTITLE1=Me Deixa Ser Feliz
TTITLE2=Quem Vai Te Amar Mais Do Que Eu
TTITLE3=Gata Manhosa
TTITLE4=Se Deu Vontade Porque Não Agora
TTITLE5=Vai Ser Bom Pra Nós Dois
TTITLE6=Ciúme
TTITLE7=Até O Amanhecer
TTITLE8=A Carta
TTITLE9=Um Toque Seu
TTITLE10=Jura
TTITLE11=Chuva E Tempestade
TTITLE12=Mil Anos De Amor
TTITLE13=Salva Teu Povo Brasil 
EXTD=
EXTT0=
EXTT1=
EXTT2=
EXTT3=
EXTT4=
EXTT5=
EXTT6=
EXTT7=
EXTT8=
EXTT9=
EXTT10=
EXTT11=
EXTT12=
EXTT13=
PLAYORDER=
